<?xml version="1.0" encoding="utf-8"?>
<!-- Uploaded to: SVG Repo, www.svgrepo.com, Generator: SVG Repo Mixer Tools -->
<svg width="800px" height="800px" viewBox="0 0 1024 1024" class="icon"  version="1.1" xmlns="http://www.w3.org/2000/svg"><path d="M511.713312 894.437551c-211.622762 0-383.808533-171.98509-383.808533-383.374406 0-211.249044 172.061881-383.217752 383.559729-383.374406 211.842898 0 384 171.98509 384 383.374406S723.307406 894.437551 511.713312 894.437551z" fill="#FFFFFF" /><path d="M511.713312 111.715104h-0.248804c-220.264354 0.156654-399.533364 179.237269-399.533364 399.348041 0 220.200874 179.393924 399.348041 399.783192 399.348041 220.452749 0 399.724831-179.147168 399.724831-399.348041 0-220.202921-179.273105-399.348041-399.725855-399.348041z" fill="#27323A" /><path d="M390.972659 180.477195c-25.395428 28.079031-47.234902 64.646072-64.145392 107.948229h-88.166765c39.747228-48.544451 92.349337-86.045275 152.312157-107.948229zM215.94663 319.781912h99.83701c-16.535748 52.570368-26.206345 112.970387-27.392004 177.738302H159.663654c2.495209-65.390436 22.711824-126.167245 56.282976-177.738302zM216.445262 703.249492c-33.132929-50.665941-53.349545-110.258115-56.53178-174.403507h128.603068c1.559377 63.521846 11.233046 122.737229 27.580399 174.403507h-99.651687zM239.284048 734.57424h87.916937c16.849057 42.92844 38.564641 79.183195 63.77065 107.137312-59.648487-21.839474-112.065273-58.96658-151.687587-107.137312zM496.052986 862.615195c-10.297215-0.498632-20.46542-1.24914-30.51383-2.623194-41.807286-19.529589-78.12245-64.329691-104.265315-125.417761h134.778121v128.040955zM496.052986 703.249492H349.418273c-17.347689-50.97925-27.830227-110.507943-29.576975-174.403507h176.211688v174.403507zM496.052986 497.521238H319.716384c1.369959-65.205113 11.855568-125.85496 29.448989-177.738302h146.886589v177.738302zM496.052986 288.425424H361.021966c26.021022-61.525269 62.586014-106.63868 104.581694-126.293183 9.983906-1.309549 20.153135-2.12149 30.449326-2.558689v128.851872z" fill="#79CCBF" /><path d="M516.955605 271.953157c0-11.48185 9.296879-20.778729 20.778729-20.778729 130.286336 0 236.302494 106.016158 236.302494 236.302495 0 11.48185-9.296879 20.778729-20.778729 20.778728s-20.778729-9.296879-20.778729-20.778728c0-107.386117-87.357896-194.745037-194.745036-194.745037-11.48185 0-20.778729-9.296879-20.778729-20.778729z" fill="#F4CE73" /><path d="M705.21228 528.845985c-1.622858 63.895564-12.229286 123.424256-29.576975 174.403507H527.377734V528.845985h177.834546z" fill="#79CCBF" /><path d="M527.936775 434.376182c0-36.378646 29.453085-65.8604 65.831731-65.8604 36.378646 0 65.89214 29.481754 65.89214 65.8604s-29.513494 65.8604-65.89214 65.8604c-36.379669 0-65.831731-29.481754-65.831731-65.8604z" fill="#F4CE73" /><path d="M560.197354 859.681764c-10.794823 1.498968-21.71456 2.434799-32.81962 2.933431V734.57424h136.400979c-25.957541 60.713328-62.087382 105.326059-103.581359 125.107524zM634.888764 840.774697c24.896796-27.768794 46.299071-63.771674 62.959733-106.201481h86.297151c-39.123682 47.48473-90.540132 84.238117-149.256884 106.201481zM806.982386 703.249492h-98.025757c16.347353-51.666277 26.018974-110.881661 27.640808-174.403507H863.517238c-3.185307 64.144368-23.401923 123.737565-56.534852 174.403507z" fill="#79CCBF" /><path d="M850.411506 508.255651c-11.48185 0-20.778729-9.296879-20.778729-20.778728 0-160.988561-130.909882-291.930184-291.898443-291.930184-11.48185 0-20.778729-9.296879-20.778729-20.778729s9.296879-20.778729 20.778729-20.778729c183.885709 0 333.455901 149.598861 333.455901 333.487642 0 11.48185-9.295855 20.778729-20.778729 20.778728z" fill="#F4CE73" /></svg>