<?xml version="1.0" encoding="utf-8"?>
<!-- Uploaded to: SVG Repo, www.svgrepo.com, Generator: SVG Repo Mixer Tools -->
<svg width="800px" height="800px" viewBox="0 0 1024 1024" class="icon"  version="1.1" xmlns="http://www.w3.org/2000/svg"><path d="M905.278449 471.260627H120.855328c-13.531668 0-24.512839 10.982194-24.512838 24.512838v408.553794c0 13.53474 10.982194 24.512839 24.512838 24.512839h784.422097c13.53474 0 24.512839-10.979122 24.512838-24.512839V495.773465c0.001024-13.530645-10.977075-24.512839-24.511814-24.512838z" fill="#27323A" /><path d="M145.369191 520.286304h66.646743c-8.491081 32.62201-34.024733 58.154639-66.646743 66.646743v-66.646743zM145.369191 879.813397v-67.411586c33.004943 8.491081 58.858048 34.344185 67.2836 67.411586h-67.2836z" fill="#FFFFFF" /><path d="M246.167629 879.813397c-9.445342-51.130785-49.663558-91.476987-100.798438-100.987857V620.574848c50.751948-9.576399 90.712144-49.536596 100.354072-100.288544H385.588046c-56.243045 40.024701-93.1408 105.651655-93.1408 179.763546 0 74.180492 36.897755 139.737821 93.1408 179.763547H246.167629z" fill="#79CCBF" /><path d="M458.359672 879.813397c-76.987985-23.489977-133.227958-95.114851-133.227959-179.763547 0-84.583167 56.239973-156.270498 133.227959-179.763546h109.417505c76.984914 23.493049 133.223863 95.18038 133.223863 179.763546 0 84.648695-56.239973 156.273569-133.223863 179.763547H458.359672z" fill="#79CCBF" /><path d="M880.764586 879.813397h-66.898619c3.958341-16.597181 12.191403-31.981058 24.575296-44.365975 11.873998-11.873998 26.494057-19.790679 42.323323-23.938439v68.304414z" fill="#FFFFFF" /><path d="M880.764586 777.741245c-24.640824 4.660726-47.30043 16.469195-65.430367 34.599133-18.639832 18.639832-30.452397 42.068376-34.854081 67.473019H640.486346c56.30243-40.025725 93.199162-105.583055 93.199161-179.763547 0-74.111891-36.896732-139.738845-93.199161-179.763546h140.44123c9.765818 50.365943 49.471067 90.074264 99.83701 99.71312v157.741821z" fill="#79CCBF" /><path d="M880.764586 586.296191c-32.236006-8.55661-57.452253-33.769786-66.068248-66.008863h66.068248v66.008863z" fill="#FFFFFF" /><path d="M528.517318 684.920921V595.935047c13.406754 4.019774 24.512839 12.573312 30.131921 24.320348 3.830355 8.170605 13.596173 11.619051 21.767802 7.726239 8.170605-3.830355 11.619051-13.600269 7.723167-21.770874-10.916665-22.914554-33.514838-38.426416-59.62289-43.280656v-3.062441c0-9.000976-7.341258-16.342234-16.342234-16.342234-9.063433 0-16.342234 7.341258-16.342233 16.342234v2.360055c-15.639848 2.873022-30.003936 9.704385-41.619915 20.045627-16.087286 14.365111-24.9613 33.6418-24.9613 54.262851 0 33.44931 22.598173 57.769658 66.581215 72.771626v98.052378c-16.469195-4.723183-27.895756-16.404691-34.151695-34.916538-2.873022-8.553538-12.194474-13.151807-20.748013-10.21428-8.553538 2.873022-13.086278 12.128946-10.21428 20.682484 10.916665 32.363991 33.769786 52.281632 65.113988 57.772729v13.341226a16.294111 16.294111 0 0 0 16.342233 16.342234c9.000976 0 16.342234-7.278801 16.342234-16.342234v-12.959316c40.473163-6.382901 71.496888-38.749964 71.496888-77.945319-0.001024-52.474123-37.280689-67.987009-71.496888-78.200265z m-32.684467-10.530661c-33.514838-14.299582-33.896748-31.536692-33.896748-37.855088 0-11.171613 4.97813-21.767802 14.044635-29.876974 5.618059-4.97813 12.511879-8.170605 19.852113-10.40677v78.138832z m32.684467 133.354921v-88.352089c27.130913 9.19449 38.812421 18.832323 38.812421 43.728094 0 21.323436-16.470219 39.067368-38.812421 44.623995zM498.002464 457.66343a24.530245 24.530245 0 0 0 30.131921 0l252.280225-196.10578c8.236134-6.382901 11.492089-17.362023 8.109171-27.258899a24.449358 24.449358 0 0 0-23.173596-16.597182h-80.691379v-97.349992c0-13.53474-10.979122-24.512839-24.512838-24.512839H365.987809c-13.531668 0-24.512839 10.979122-24.512838 24.512839v97.349992h-80.687283a24.449358 24.449358 0 0 0-23.173597 16.597182c-0.891804 2.618075-1.340266 5.298607-1.340266 7.915657 0 7.405763 3.382917 14.620059 9.449438 19.342218l252.279201 196.106804z" fill="#27323A" /><path d="M365.987809 266.72827c13.53474 0 24.512839-10.979122 24.512839-24.512838v-97.349993h245.132481v97.349993c0 13.53474 10.982194 24.512839 24.512839 24.512838h33.707328a341849.001232 341849.001232 0 0 1-180.786407 140.568193 344925.714176 344925.714176 0 0 1-180.783337-140.568193h33.704257z" fill="#F4CE73" /></svg>