<?xml version="1.0" encoding="utf-8"?>
<!-- Uploaded to: SVG Repo, www.svgrepo.com, Generator: SVG Repo Mixer Tools -->
<svg width="800px" height="800px" viewBox="0 0 1024 1024" class="icon"  version="1.1" xmlns="http://www.w3.org/2000/svg"><path d="M893.849841 207.813909v698.038939c0 12.692082-10.298239 22.986226-22.986226 22.986226H150.616603c-12.692082 0-22.986226-10.295167-22.986226-22.986226V207.813909c0-12.689011 10.295167-22.986226 22.986226-22.986226h218.970163v-0.058361c0-12.510855 10.117011-22.627866 22.627866-22.627866h32.564673v-8.919065c0-31.905291 23.884173-57.824948 53.33521-57.824948h65.729342c29.450014 0 53.33521 25.919657 53.335211 57.824948v8.919065h32.086518c12.449422 0 22.566433 10.117011 22.566433 22.627866v0.058361h219.031596c12.687987 0 22.986226 10.298239 22.986226 22.986226z" fill="#27323A" /><path d="M649.256947 839.529653h85.18214v-39.389893c-27.834323 16.880797-56.807206 29.631241-85.18214 39.389893z" fill="#FFFFFF" /><path d="M711.152863 777.511895c-17.895468-7.601325-36.095029-17.776697-49.442399-29.450014-26.817604 27.476987-69.680516 59.262483-110.503847 83.864399 47.108964-7.601325 105.713088-23.284176 159.946246-54.414385z" fill="#F4CE73" /><path d="M734.439087 754.524645V319.694882h-85.899883c-3.892812 6.763786-10.895164 11.554546-19.274642 11.554546h-237.04993c-8.382549 0-15.444286-4.790759-19.336074-11.554546h-85.899884v519.834771h176.469708c23.345609-0.659382 142.050778-69.977443 186.108564-123.014703 3.350153-4.011583 8.440911-6.047067 13.586958-5.446046 5.149119 0.597949 9.638856 3.769946 11.974339 8.440911 4.907482 9.935783 38.670101 27.233302 59.320844 35.01483z" fill="#FFFFFF" /><path d="M414.781065 286.112467h191.913993v-78.776713h-32.083447c-12.452493 0-22.569504-10.117011-22.569504-22.566432v-31.546931c0-7.241941-4.309533-12.692082-8.19825-12.692082h-65.729342c-3.88974 0-8.201321 5.449118-8.201321 12.692082v31.546931c0 12.449422-10.113939 22.566433-22.566433 22.566432h-32.564673l-0.001023 78.776713z" fill="#F4CE73" /><path d="M847.87739 230.801158H651.832019v58.244741h97.932583c8.499272 0 15.324492 6.883581 15.324492 15.324492v550.483753a15.278417 15.278417 0 0 1-15.324492 15.324492H477.158206c-7.604396 0.178156-12.74942 0.119795-14.128593 0.058361h-0.416722c-0.119795 0-0.181228-0.058361-0.299998-0.058361H271.654183c-8.440911 0-15.324492-6.82522-15.324492-15.324492V304.370391c0-8.440911 6.883581-15.324492 15.324492-15.324492h97.932583v-58.244741H173.602828v652.065465h674.273538V230.801158z" fill="#79CCBF" /><path d="M379.703777 440.794919c0-8.440911 6.883581-15.324492 15.324492-15.324492h134.747404c8.440911 0 15.324492 6.883581 15.324492 15.324492 0 8.499272-6.883581 15.324492-15.324492 15.324492H395.028269c-8.440911 0-15.324492-6.826243-15.324492-15.324492zM395.028269 514.783944h134.747404c8.440911 0 15.324492-6.82522 15.324492-15.324491 0-8.440911-6.883581-15.324492-15.324492-15.324492H395.028269c-8.440911 0-15.324492 6.883581-15.324492 15.324492 0 8.499272 6.883581 15.324492 15.324492 15.324491zM631.180252 571.352585H396.165805c-8.502344 0-15.324492 6.883581-15.324491 15.324491a15.276369 15.276369 0 0 0 15.324491 15.324492h235.015471c8.440911 0 15.324492-6.82522 15.324491-15.324492-0.001024-8.440911-6.884605-15.324492-15.325515-15.324491zM631.180252 629.655687H396.165805a15.276369 15.276369 0 0 0-15.324491 15.324491c0 8.440911 6.822148 15.324492 15.324491 15.324492h235.015471c8.440911 0 15.324492-6.883581 15.324491-15.324492-0.001024-8.499272-6.884605-15.324492-15.325515-15.324491z" fill="#27323A" /></svg>